<!--?xml version="1.0" standalone="no"?-->
<svg id="sw-js-blob-svg" viewBox="0 0 100 100" xmlns="http://www.w3.org/2000/svg">
    <defs>
        <linearGradient id="sw-gradient" x1="0" x2="1" y1="1" y2="0">
            <stop id="stop1" stop-color="rgba(248, 117, 55, 1)" offset="0%"></stop>
            <stop id="stop2" stop-color="rgba(251, 168, 31, 1)" offset="100%"></stop>
        </linearGradient>
    </defs>
    <path fill="url(#sw-gradient)"
        d="M21.8,-24.1C28.9,-20,35.8,-13.8,37.2,-6.4C38.7,0.9,34.7,9.3,30.1,17.6C25.6,25.9,20.5,34.1,12.6,38.8C4.7,43.5,-6,44.6,-15.6,41.6C-25.3,38.7,-34,31.6,-36.4,23.1C-38.8,14.6,-35.1,4.5,-31.7,-4.1C-28.4,-12.7,-25.5,-19.8,-20.3,-24.2C-15.1,-28.6,-7.5,-30.3,-0.1,-30.2C7.4,-30,14.7,-28.2,21.8,-24.1Z"
        width="100%" height="100%" transform="translate(50 50)" style="transition: 0.3s;"
        stroke-width="0"></path>
</svg>